<mxfile host="app.diagrams.net" agent="Mozilla/5.0 (Windows NT 10.0; Win64; x64) AppleWebKit/537.36 (KHTML, like Gecko) Chrome/127.0.0.0 Safari/537.36" version="24.7.7">
  <diagram name="Sayfa -1" id="_t6wodr2yXOrah_Njx3o">
    <mxGraphModel dx="915" dy="471" grid="1" gridSize="10" guides="1" tooltips="1" connect="1" arrows="1" fold="1" page="1" pageScale="1" pageWidth="700" pageHeight="1000" math="0" shadow="0">
      <root>
        <mxCell id="0" />
        <mxCell id="1" parent="0" />
        <mxCell id="fNrsDbKslxSLZxUMWyiI-1" value="" style="rounded=0;whiteSpace=wrap;html=1;fillColor=#9db8c3;strokeColor=#6c8ebf;fillStyle=auto;" parent="1" vertex="1">
          <mxGeometry x="345" y="220" width="755" height="360" as="geometry" />
        </mxCell>
        <mxCell id="fNrsDbKslxSLZxUMWyiI-4" value="CPU" style="rounded=0;whiteSpace=wrap;html=1;fillColor=#647687;fontColor=#ffffff;strokeColor=#314354;" parent="1" vertex="1">
          <mxGeometry x="680" y="340" width="110" height="110" as="geometry" />
        </mxCell>
        <mxCell id="fNrsDbKslxSLZxUMWyiI-5" value="MEMORY" style="rounded=0;whiteSpace=wrap;html=1;fillColor=#647687;fontColor=#ffffff;strokeColor=#314354;" parent="1" vertex="1">
          <mxGeometry x="510" y="410" width="90" height="60" as="geometry" />
        </mxCell>
        <mxCell id="fNrsDbKslxSLZxUMWyiI-8" value="&lt;font style=&quot;font-size: 14px;&quot;&gt;Gigabit&amp;nbsp;&lt;/font&gt;&lt;div style=&quot;font-size: 14px;&quot;&gt;&lt;font style=&quot;font-size: 14px;&quot;&gt;Ethernet&lt;/font&gt;&lt;/div&gt;" style="shape=process;whiteSpace=wrap;html=1;backgroundOutline=1;fillColor=#f5f5f5;fontColor=#333333;strokeColor=#666666;" parent="1" vertex="1">
          <mxGeometry x="320" y="370" width="110" height="80" as="geometry" />
        </mxCell>
        <mxCell id="AjazuvHJguhdtb-6_XPz-1" value="Power Jack" style="shape=process;whiteSpace=wrap;html=1;backgroundOutline=1;fillColor=#f5f5f5;fontColor=#333333;strokeColor=#666666;" vertex="1" parent="1">
          <mxGeometry x="345" y="500" width="60" height="40" as="geometry" />
        </mxCell>
        <mxCell id="AjazuvHJguhdtb-6_XPz-2" value="HDMI port" style="shape=process;whiteSpace=wrap;html=1;backgroundOutline=1;fillColor=#f5f5f5;fontColor=#333333;strokeColor=#666666;" vertex="1" parent="1">
          <mxGeometry x="330" y="280" width="70" height="60" as="geometry" />
        </mxCell>
        <mxCell id="AjazuvHJguhdtb-6_XPz-3" value="Touch Panel Connector" style="rounded=0;whiteSpace=wrap;html=1;" vertex="1" parent="1">
          <mxGeometry x="410" y="245" width="80" height="30" as="geometry" />
        </mxCell>
        <mxCell id="AjazuvHJguhdtb-6_XPz-4" value="Camera Port Connector" style="rounded=0;whiteSpace=wrap;html=1;" vertex="1" parent="1">
          <mxGeometry x="500" y="240" width="110" height="40" as="geometry" />
        </mxCell>
        <mxCell id="AjazuvHJguhdtb-6_XPz-5" value="" style="rounded=0;whiteSpace=wrap;html=1;" vertex="1" parent="1">
          <mxGeometry x="620" y="240" width="410" height="40" as="geometry" />
        </mxCell>
        <mxCell id="AjazuvHJguhdtb-6_XPz-6" value="2" style="ellipse;whiteSpace=wrap;html=1;aspect=fixed;fillColor=#f8cecc;strokeColor=#b85450;" vertex="1" parent="1">
          <mxGeometry x="630" y="242.5" width="15" height="15" as="geometry" />
        </mxCell>
        <mxCell id="AjazuvHJguhdtb-6_XPz-30" value="4" style="ellipse;whiteSpace=wrap;html=1;aspect=fixed;fillColor=#f8cecc;strokeColor=#b85450;" vertex="1" parent="1">
          <mxGeometry x="650" y="242.5" width="15" height="15" as="geometry" />
        </mxCell>
        <mxCell id="AjazuvHJguhdtb-6_XPz-31" value="6" style="ellipse;whiteSpace=wrap;html=1;aspect=fixed;fillColor=#a20025;fontColor=#ffffff;strokeColor=#6F0000;" vertex="1" parent="1">
          <mxGeometry x="670" y="242.5" width="15" height="15" as="geometry" />
        </mxCell>
        <mxCell id="AjazuvHJguhdtb-6_XPz-32" value="8" style="ellipse;whiteSpace=wrap;html=1;aspect=fixed;fillColor=#ababf7;" vertex="1" parent="1">
          <mxGeometry x="690" y="242.5" width="15" height="15" as="geometry" />
        </mxCell>
        <mxCell id="AjazuvHJguhdtb-6_XPz-33" value="10" style="ellipse;whiteSpace=wrap;html=1;aspect=fixed;fillColor=#ababf7;" vertex="1" parent="1">
          <mxGeometry x="710" y="242.5" width="15" height="15" as="geometry" />
        </mxCell>
        <mxCell id="AjazuvHJguhdtb-6_XPz-34" value="17" style="ellipse;whiteSpace=wrap;html=1;aspect=fixed;fillColor=#ffe6cc;strokeColor=#d79b00;" vertex="1" parent="1">
          <mxGeometry x="790" y="260" width="15" height="15" as="geometry" />
        </mxCell>
        <mxCell id="AjazuvHJguhdtb-6_XPz-35" value="11" style="ellipse;whiteSpace=wrap;html=1;aspect=fixed;fillColor=#60a917;fontColor=#ffffff;strokeColor=#2D7600;" vertex="1" parent="1">
          <mxGeometry x="730" y="260" width="15" height="15" as="geometry" />
        </mxCell>
        <mxCell id="AjazuvHJguhdtb-6_XPz-36" value="12" style="ellipse;whiteSpace=wrap;html=1;aspect=fixed;fillColor=#60a917;fontColor=#ffffff;strokeColor=#2D7600;" vertex="1" parent="1">
          <mxGeometry x="730" y="242.5" width="15" height="15" as="geometry" />
        </mxCell>
        <mxCell id="AjazuvHJguhdtb-6_XPz-37" value="13" style="ellipse;whiteSpace=wrap;html=1;aspect=fixed;fillColor=#60a917;fontColor=#ffffff;strokeColor=#2D7600;" vertex="1" parent="1">
          <mxGeometry x="750" y="260" width="15" height="15" as="geometry" />
        </mxCell>
        <mxCell id="AjazuvHJguhdtb-6_XPz-38" value="15" style="ellipse;whiteSpace=wrap;html=1;aspect=fixed;fillColor=#60a917;fontColor=#ffffff;strokeColor=#2D7600;" vertex="1" parent="1">
          <mxGeometry x="770" y="260" width="15" height="15" as="geometry" />
        </mxCell>
        <mxCell id="AjazuvHJguhdtb-6_XPz-39" value="1" style="ellipse;whiteSpace=wrap;html=1;aspect=fixed;fillColor=#ffe6cc;strokeColor=#d79b00;" vertex="1" parent="1">
          <mxGeometry x="630" y="260" width="15" height="15" as="geometry" />
        </mxCell>
        <mxCell id="AjazuvHJguhdtb-6_XPz-40" value="3" style="ellipse;whiteSpace=wrap;html=1;aspect=fixed;fillColor=#feccff;strokeColor=#A50040;fontColor=#ffffff;" vertex="1" parent="1">
          <mxGeometry x="650" y="260" width="15" height="15" as="geometry" />
        </mxCell>
        <mxCell id="AjazuvHJguhdtb-6_XPz-41" value="5" style="ellipse;whiteSpace=wrap;html=1;aspect=fixed;fillColor=#feccff;strokeColor=#A50040;fontColor=#ffffff;" vertex="1" parent="1">
          <mxGeometry x="670" y="260" width="15" height="15" as="geometry" />
        </mxCell>
        <mxCell id="AjazuvHJguhdtb-6_XPz-42" value="7" style="ellipse;whiteSpace=wrap;html=1;aspect=fixed;fillColor=#60a917;fontColor=#ffffff;strokeColor=#2D7600;" vertex="1" parent="1">
          <mxGeometry x="690" y="260" width="15" height="15" as="geometry" />
        </mxCell>
        <mxCell id="AjazuvHJguhdtb-6_XPz-43" value="9" style="ellipse;whiteSpace=wrap;html=1;aspect=fixed;fillColor=#a20025;fontColor=#ffffff;strokeColor=#6F0000;" vertex="1" parent="1">
          <mxGeometry x="710" y="260" width="15" height="15" as="geometry" />
        </mxCell>
        <mxCell id="AjazuvHJguhdtb-6_XPz-45" value="14" style="ellipse;whiteSpace=wrap;html=1;aspect=fixed;fillColor=#a20025;fontColor=#ffffff;strokeColor=#6F0000;" vertex="1" parent="1">
          <mxGeometry x="750" y="242.5" width="15" height="15" as="geometry" />
        </mxCell>
        <mxCell id="AjazuvHJguhdtb-6_XPz-46" value="18" style="ellipse;whiteSpace=wrap;html=1;aspect=fixed;fillColor=#60a917;fontColor=#ffffff;strokeColor=#2D7600;" vertex="1" parent="1">
          <mxGeometry x="790" y="242.5" width="15" height="15" as="geometry" />
        </mxCell>
        <mxCell id="AjazuvHJguhdtb-6_XPz-47" value="16" style="ellipse;whiteSpace=wrap;html=1;aspect=fixed;fillColor=#60a917;fontColor=#ffffff;strokeColor=#2D7600;" vertex="1" parent="1">
          <mxGeometry x="770" y="242.5" width="15" height="15" as="geometry" />
        </mxCell>
        <mxCell id="AjazuvHJguhdtb-6_XPz-48" value="20" style="ellipse;whiteSpace=wrap;html=1;aspect=fixed;fillColor=#a20025;fontColor=#ffffff;strokeColor=#6F0000;" vertex="1" parent="1">
          <mxGeometry x="810" y="242.5" width="15" height="15" as="geometry" />
        </mxCell>
        <mxCell id="AjazuvHJguhdtb-6_XPz-49" value="19" style="ellipse;whiteSpace=wrap;html=1;aspect=fixed;fillColor=#0050ef;fontColor=#ffffff;strokeColor=#001DBC;" vertex="1" parent="1">
          <mxGeometry x="810" y="260" width="15" height="15" as="geometry" />
        </mxCell>
        <mxCell id="AjazuvHJguhdtb-6_XPz-50" value="21" style="ellipse;whiteSpace=wrap;html=1;aspect=fixed;fillColor=#0050ef;fontColor=#ffffff;strokeColor=#001DBC;" vertex="1" parent="1">
          <mxGeometry x="830" y="260" width="15" height="15" as="geometry" />
        </mxCell>
        <mxCell id="AjazuvHJguhdtb-6_XPz-51" value="23" style="ellipse;whiteSpace=wrap;html=1;aspect=fixed;fillColor=#0050ef;fontColor=#ffffff;strokeColor=#001DBC;" vertex="1" parent="1">
          <mxGeometry x="850" y="260" width="15" height="15" as="geometry" />
        </mxCell>
        <mxCell id="AjazuvHJguhdtb-6_XPz-52" value="25" style="ellipse;whiteSpace=wrap;html=1;aspect=fixed;fillColor=#a20025;fontColor=#ffffff;strokeColor=#6F0000;" vertex="1" parent="1">
          <mxGeometry x="870" y="260" width="15" height="15" as="geometry" />
        </mxCell>
        <mxCell id="AjazuvHJguhdtb-6_XPz-54" value="26" style="ellipse;whiteSpace=wrap;html=1;aspect=fixed;fillColor=#0050ef;fontColor=#ffffff;strokeColor=#001DBC;" vertex="1" parent="1">
          <mxGeometry x="870" y="242.5" width="15" height="15" as="geometry" />
        </mxCell>
        <mxCell id="AjazuvHJguhdtb-6_XPz-55" value="27" style="ellipse;whiteSpace=wrap;html=1;aspect=fixed;fillColor=#ffff88;strokeColor=#36393d;" vertex="1" parent="1">
          <mxGeometry x="890" y="260" width="15" height="15" as="geometry" />
        </mxCell>
        <mxCell id="AjazuvHJguhdtb-6_XPz-56" value="29" style="ellipse;whiteSpace=wrap;html=1;aspect=fixed;fillColor=#60a917;fontColor=#ffffff;strokeColor=#2D7600;" vertex="1" parent="1">
          <mxGeometry x="910" y="260" width="15" height="15" as="geometry" />
        </mxCell>
        <mxCell id="AjazuvHJguhdtb-6_XPz-57" value="31" style="ellipse;whiteSpace=wrap;html=1;aspect=fixed;fillColor=#60a917;fontColor=#ffffff;strokeColor=#2D7600;" vertex="1" parent="1">
          <mxGeometry x="930" y="260" width="15" height="15" as="geometry" />
        </mxCell>
        <mxCell id="AjazuvHJguhdtb-6_XPz-58" value="33" style="ellipse;whiteSpace=wrap;html=1;aspect=fixed;fillColor=#60a917;fontColor=#ffffff;strokeColor=#2D7600;" vertex="1" parent="1">
          <mxGeometry x="950" y="260" width="15" height="15" as="geometry" />
        </mxCell>
        <mxCell id="AjazuvHJguhdtb-6_XPz-59" value="35" style="ellipse;whiteSpace=wrap;html=1;aspect=fixed;fillColor=#60a917;fontColor=#ffffff;strokeColor=#2D7600;" vertex="1" parent="1">
          <mxGeometry x="970" y="260" width="15" height="15" as="geometry" />
        </mxCell>
        <mxCell id="AjazuvHJguhdtb-6_XPz-60" value="24" style="ellipse;whiteSpace=wrap;html=1;aspect=fixed;fillColor=#0050ef;fontColor=#ffffff;strokeColor=#001DBC;" vertex="1" parent="1">
          <mxGeometry x="850" y="242.5" width="15" height="15" as="geometry" />
        </mxCell>
        <mxCell id="AjazuvHJguhdtb-6_XPz-61" value="22" style="ellipse;whiteSpace=wrap;html=1;aspect=fixed;fillColor=#60a917;fontColor=#ffffff;strokeColor=#2D7600;" vertex="1" parent="1">
          <mxGeometry x="830" y="242.5" width="15" height="15" as="geometry" />
        </mxCell>
        <mxCell id="AjazuvHJguhdtb-6_XPz-62" value="28" style="ellipse;whiteSpace=wrap;html=1;aspect=fixed;fillColor=#ffff88;strokeColor=#36393d;" vertex="1" parent="1">
          <mxGeometry x="890" y="242.5" width="15" height="15" as="geometry" />
        </mxCell>
        <mxCell id="AjazuvHJguhdtb-6_XPz-63" value="30" style="ellipse;whiteSpace=wrap;html=1;aspect=fixed;fillColor=#a20025;fontColor=#ffffff;strokeColor=#6F0000;" vertex="1" parent="1">
          <mxGeometry x="910" y="242.5" width="15" height="15" as="geometry" />
        </mxCell>
        <mxCell id="AjazuvHJguhdtb-6_XPz-64" value="34" style="ellipse;whiteSpace=wrap;html=1;aspect=fixed;fillColor=#a20025;fontColor=#ffffff;strokeColor=#6F0000;" vertex="1" parent="1">
          <mxGeometry x="950" y="242.5" width="15" height="15" as="geometry" />
        </mxCell>
        <mxCell id="AjazuvHJguhdtb-6_XPz-65" value="36" style="ellipse;whiteSpace=wrap;html=1;aspect=fixed;fillColor=#60a917;fontColor=#ffffff;strokeColor=#2D7600;" vertex="1" parent="1">
          <mxGeometry x="970" y="242.5" width="15" height="15" as="geometry" />
        </mxCell>
        <mxCell id="AjazuvHJguhdtb-6_XPz-66" value="37" style="ellipse;whiteSpace=wrap;html=1;aspect=fixed;fillColor=#60a917;fontColor=#ffffff;strokeColor=#2D7600;" vertex="1" parent="1">
          <mxGeometry x="990" y="260" width="15" height="15" as="geometry" />
        </mxCell>
        <mxCell id="AjazuvHJguhdtb-6_XPz-67" value="38" style="ellipse;whiteSpace=wrap;html=1;aspect=fixed;fillColor=#60a917;fontColor=#ffffff;strokeColor=#2D7600;" vertex="1" parent="1">
          <mxGeometry x="990" y="242.5" width="15" height="15" as="geometry" />
        </mxCell>
        <mxCell id="AjazuvHJguhdtb-6_XPz-68" value="40" style="ellipse;whiteSpace=wrap;html=1;aspect=fixed;fillColor=#60a917;fontColor=#ffffff;strokeColor=#2D7600;" vertex="1" parent="1">
          <mxGeometry x="1010" y="242.5" width="15" height="15" as="geometry" />
        </mxCell>
        <mxCell id="AjazuvHJguhdtb-6_XPz-69" value="39" style="ellipse;whiteSpace=wrap;html=1;aspect=fixed;fillColor=#a20025;fontColor=#ffffff;strokeColor=#6F0000;" vertex="1" parent="1">
          <mxGeometry x="1010" y="260" width="15" height="15" as="geometry" />
        </mxCell>
        <mxCell id="AjazuvHJguhdtb-6_XPz-71" value="32" style="ellipse;whiteSpace=wrap;html=1;aspect=fixed;fillColor=#60a917;fontColor=#ffffff;strokeColor=#2D7600;" vertex="1" parent="1">
          <mxGeometry x="930" y="242.5" width="15" height="15" as="geometry" />
        </mxCell>
        <mxCell id="AjazuvHJguhdtb-6_XPz-101" value="DSI Connector" style="rounded=0;whiteSpace=wrap;html=1;" vertex="1" parent="1">
          <mxGeometry x="460" y="530" width="130" height="30" as="geometry" />
        </mxCell>
        <mxCell id="AjazuvHJguhdtb-6_XPz-102" value="Euler&amp;nbsp; &quot;e&quot; Bus" style="rounded=0;whiteSpace=wrap;html=1;" vertex="1" parent="1">
          <mxGeometry x="605" y="520" width="295" height="40" as="geometry" />
        </mxCell>
        <mxCell id="AjazuvHJguhdtb-6_XPz-103" value="" style="shape=process;whiteSpace=wrap;html=1;backgroundOutline=1;rotation=90;fillColor=#f5f5f5;fontColor=#333333;strokeColor=#666666;" vertex="1" parent="1">
          <mxGeometry x="920" y="520" width="60" height="60" as="geometry" />
        </mxCell>
        <mxCell id="AjazuvHJguhdtb-6_XPz-104" value="microSD Card Slot&amp;nbsp;" style="text;html=1;align=center;verticalAlign=middle;whiteSpace=wrap;rounded=0;" vertex="1" parent="1">
          <mxGeometry x="920" y="545" width="60" height="10" as="geometry" />
        </mxCell>
        <mxCell id="AjazuvHJguhdtb-6_XPz-105" value="2x&amp;nbsp; &amp;nbsp;USB&amp;nbsp;&lt;div&gt;port&lt;/div&gt;" style="shape=process;whiteSpace=wrap;html=1;backgroundOutline=1;fillColor=#f5f5f5;fontColor=#333333;strokeColor=#666666;" vertex="1" parent="1">
          <mxGeometry x="1050" y="290" width="90" height="60" as="geometry" />
        </mxCell>
        <mxCell id="AjazuvHJguhdtb-6_XPz-111" value="" style="strokeWidth=2;html=1;shape=mxgraph.flowchart.annotation_1;align=left;pointerEvents=1;" vertex="1" parent="1">
          <mxGeometry x="1070" y="370" width="30" height="30" as="geometry" />
        </mxCell>
        <mxCell id="AjazuvHJguhdtb-6_XPz-106" value="" style="verticalLabelPosition=bottom;verticalAlign=top;html=1;shape=mxgraph.basic.donut;dx=2.34;" vertex="1" parent="1">
          <mxGeometry x="1080" y="370" width="10" height="10" as="geometry" />
        </mxCell>
        <mxCell id="AjazuvHJguhdtb-6_XPz-107" value="" style="verticalLabelPosition=bottom;verticalAlign=top;html=1;shape=mxgraph.basic.donut;dx=2.34;" vertex="1" parent="1">
          <mxGeometry x="1080" y="390" width="10" height="10" as="geometry" />
        </mxCell>
        <mxCell id="AjazuvHJguhdtb-6_XPz-112" value="" style="strokeWidth=2;html=1;shape=mxgraph.flowchart.annotation_1;align=left;pointerEvents=1;" vertex="1" parent="1">
          <mxGeometry x="1070" y="420" width="30" height="30" as="geometry" />
        </mxCell>
        <mxCell id="AjazuvHJguhdtb-6_XPz-108" value="" style="verticalLabelPosition=bottom;verticalAlign=top;html=1;shape=mxgraph.basic.donut;dx=2.34;" vertex="1" parent="1">
          <mxGeometry x="1080" y="420" width="10" height="10" as="geometry" />
        </mxCell>
        <mxCell id="AjazuvHJguhdtb-6_XPz-110" value="" style="verticalLabelPosition=bottom;verticalAlign=top;html=1;shape=mxgraph.basic.donut;dx=2.34;" vertex="1" parent="1">
          <mxGeometry x="1080" y="440" width="10" height="10" as="geometry" />
        </mxCell>
        <mxCell id="AjazuvHJguhdtb-6_XPz-114" value="POWER" style="text;html=1;align=center;verticalAlign=middle;whiteSpace=wrap;rounded=0;rotation=-90;" vertex="1" parent="1">
          <mxGeometry x="1040" y="425" width="40" height="30" as="geometry" />
        </mxCell>
        <mxCell id="AjazuvHJguhdtb-6_XPz-116" value="RESET" style="text;html=1;align=center;verticalAlign=middle;whiteSpace=wrap;rounded=0;rotation=-90;" vertex="1" parent="1">
          <mxGeometry x="1030" y="370" width="60" height="30" as="geometry" />
        </mxCell>
        <mxCell id="AjazuvHJguhdtb-6_XPz-117" value="Head Phone Jack" style="shape=process;whiteSpace=wrap;html=1;backgroundOutline=1;" vertex="1" parent="1">
          <mxGeometry x="1060" y="525" width="50" height="40" as="geometry" />
        </mxCell>
        <mxCell id="AjazuvHJguhdtb-6_XPz-118" value="" style="rounded=0;whiteSpace=wrap;html=1;" vertex="1" parent="1">
          <mxGeometry x="915" y="350" width="100" height="20" as="geometry" />
        </mxCell>
        <mxCell id="AjazuvHJguhdtb-6_XPz-120" value="" style="rounded=0;whiteSpace=wrap;html=1;" vertex="1" parent="1">
          <mxGeometry x="915" y="440" width="100" height="20" as="geometry" />
        </mxCell>
        <mxCell id="AjazuvHJguhdtb-6_XPz-121" value="" style="endArrow=none;html=1;rounded=0;entryX=0;entryY=0.5;entryDx=0;entryDy=0;" edge="1" parent="1" source="AjazuvHJguhdtb-6_XPz-120" target="AjazuvHJguhdtb-6_XPz-118">
          <mxGeometry width="50" height="50" relative="1" as="geometry">
            <mxPoint x="950" y="390" as="sourcePoint" />
            <mxPoint x="1000" y="340" as="targetPoint" />
            <Array as="points">
              <mxPoint x="880" y="450" />
              <mxPoint x="880" y="400" />
              <mxPoint x="880" y="360" />
            </Array>
          </mxGeometry>
        </mxCell>
        <mxCell id="AjazuvHJguhdtb-6_XPz-122" value="" style="endArrow=none;dashed=1;html=1;dashPattern=1 3;strokeWidth=2;rounded=0;exitX=0.004;exitY=0.372;exitDx=0;exitDy=0;entryX=1.002;entryY=0.331;entryDx=0;entryDy=0;entryPerimeter=0;exitPerimeter=0;" edge="1" parent="1" source="AjazuvHJguhdtb-6_XPz-118" target="AjazuvHJguhdtb-6_XPz-118">
          <mxGeometry width="50" height="50" relative="1" as="geometry">
            <mxPoint x="950" y="390" as="sourcePoint" />
            <mxPoint x="1000" y="340" as="targetPoint" />
            <Array as="points" />
          </mxGeometry>
        </mxCell>
        <mxCell id="AjazuvHJguhdtb-6_XPz-123" value="" style="endArrow=none;dashed=1;html=1;dashPattern=1 3;strokeWidth=2;rounded=0;exitX=0.008;exitY=0.387;exitDx=0;exitDy=0;entryX=1.008;entryY=0.398;entryDx=0;entryDy=0;entryPerimeter=0;exitPerimeter=0;" edge="1" parent="1" source="AjazuvHJguhdtb-6_XPz-120" target="AjazuvHJguhdtb-6_XPz-120">
          <mxGeometry width="50" height="50" relative="1" as="geometry">
            <mxPoint x="925" y="370" as="sourcePoint" />
            <mxPoint x="1025" y="370" as="targetPoint" />
            <Array as="points" />
          </mxGeometry>
        </mxCell>
        <mxCell id="AjazuvHJguhdtb-6_XPz-124" value="" style="endArrow=none;dashed=1;html=1;dashPattern=1 3;strokeWidth=2;rounded=0;exitX=0.002;exitY=0.638;exitDx=0;exitDy=0;entryX=0.999;entryY=0.65;entryDx=0;entryDy=0;entryPerimeter=0;exitPerimeter=0;" edge="1" parent="1" source="AjazuvHJguhdtb-6_XPz-118" target="AjazuvHJguhdtb-6_XPz-118">
          <mxGeometry width="50" height="50" relative="1" as="geometry">
            <mxPoint x="925" y="370" as="sourcePoint" />
            <mxPoint x="1025" y="370" as="targetPoint" />
            <Array as="points">
              <mxPoint x="970" y="363" />
            </Array>
          </mxGeometry>
        </mxCell>
        <mxCell id="AjazuvHJguhdtb-6_XPz-125" value="" style="endArrow=none;dashed=1;html=1;dashPattern=1 3;strokeWidth=2;rounded=0;exitX=0;exitY=0.75;exitDx=0;exitDy=0;entryX=1;entryY=0.75;entryDx=0;entryDy=0;" edge="1" parent="1" source="AjazuvHJguhdtb-6_XPz-120" target="AjazuvHJguhdtb-6_XPz-120">
          <mxGeometry width="50" height="50" relative="1" as="geometry">
            <mxPoint x="925" y="373" as="sourcePoint" />
            <mxPoint x="1025" y="373" as="targetPoint" />
            <Array as="points" />
          </mxGeometry>
        </mxCell>
        <mxCell id="AjazuvHJguhdtb-6_XPz-126" value="Wifi / BT port" style="text;html=1;align=center;verticalAlign=middle;whiteSpace=wrap;rounded=0;rotation=-90;" vertex="1" parent="1">
          <mxGeometry x="830" y="385" width="80" height="30" as="geometry" />
        </mxCell>
        <mxCell id="AjazuvHJguhdtb-6_XPz-131" value="" style="strokeWidth=2;html=1;shape=mxgraph.flowchart.annotation_1;align=left;pointerEvents=1;rotation=90;" vertex="1" parent="1">
          <mxGeometry x="660" y="154.79" width="53.57" height="21.71" as="geometry" />
        </mxCell>
        <mxCell id="AjazuvHJguhdtb-6_XPz-129" value="button" style="shape=cube;whiteSpace=wrap;html=1;boundedLbl=1;backgroundOutline=1;darkOpacity=0.05;darkOpacity2=0.1;size=8;rotation=0;" vertex="1" parent="1">
          <mxGeometry x="662.85" y="119.78999999999999" width="47.15" height="39.57" as="geometry" />
        </mxCell>
        <mxCell id="AjazuvHJguhdtb-6_XPz-138" value="" style="line;strokeWidth=3;html=1;rotation=-90;" vertex="1" parent="1">
          <mxGeometry x="645" y="205" width="60" height="30" as="geometry" />
        </mxCell>
        <mxCell id="AjazuvHJguhdtb-6_XPz-139" value="" style="line;strokeWidth=3;html=1;rotation=-90;" vertex="1" parent="1">
          <mxGeometry x="660" y="212.5" width="75" height="30" as="geometry" />
        </mxCell>
        <mxCell id="AjazuvHJguhdtb-6_XPz-141" value="" style="strokeWidth=2;html=1;shape=mxgraph.flowchart.annotation_1;align=left;pointerEvents=1;rotation=-90;fillColor=#f8cecc;strokeColor=#b85450;" vertex="1" parent="1">
          <mxGeometry x="652.39" y="247.39" width="30" height="65" as="geometry" />
        </mxCell>
        <mxCell id="AjazuvHJguhdtb-6_XPz-142" value="10kΩ&amp;nbsp;&lt;span style=&quot;background-color: initial;&quot;&gt;pull-up resistor&lt;/span&gt;" style="text;html=1;align=center;verticalAlign=middle;whiteSpace=wrap;rounded=0;" vertex="1" parent="1">
          <mxGeometry x="622.61" y="300" width="87.39" height="20" as="geometry" />
        </mxCell>
      </root>
    </mxGraphModel>
  </diagram>
</mxfile>
